<?xml version="1.0" encoding="UTF-8"?>
<svg width="1897px" height="660px" viewBox="0 0 1897 660" version="1.1" xmlns="http://www.w3.org/2000/svg" xmlns:xlink="http://www.w3.org/1999/xlink">
    <title>Artboard</title>
    <defs>
        <linearGradient x1="2.70616862e-14%" y1="45.2435613%" x2="100%" y2="54.7564387%" id="linearGradient-1">
            <stop stop-color="#09CAFE" offset="0%"></stop>
            <stop stop-color="#FF5AEF" offset="100%"></stop>
        </linearGradient>
        <path d="M108.2,447 C117.8,447 125.666667,445.133333 131.8,441.4 C137.933333,437.666667 141.133333,432.066667 141.4,424.6 C149.4,425.4 160.066667,425.8 173.4,425.8 C209.133333,425.8 239.666667,421.6 265,413.2 C290.333333,404.8 309.6,392.866667 322.8,377.4 C336,361.933333 342.6,343.666667 342.6,322.6 C342.6,309.266667 338.333333,297.466667 329.8,287.2 C321.266667,276.933333 308.733333,269.533333 292.2,265 C322.866667,257.8 346.2,246 362.2,229.6 C378.2,213.2 386.2,193.666667 386.2,171 C386.2,144.333333 374.333333,122.866667 350.6,106.6 C326.866667,90.3333333 290.866667,82.2 242.6,82.2 C211.133333,82.2 180.333333,85.8 150.2,93 C120.066667,100.2 93.8,110.2 71.4,123 C60.7333333,129.133333 54,134.6 51.2,139.4 C48.4,144.2 47,149.933333 47,156.6 C47,161.666667 48.2666667,165.866667 50.8,169.2 C53.3333333,172.533333 57,174.2 61.8,174.2 C67.6666667,174.2 74.8666667,171.666667 83.4,166.6 C102.066667,155.4 124.733333,146.133333 151.4,138.8 C178.066667,131.466667 205.666667,127.8 234.2,127.8 C265.666667,127.8 289,132.266667 304.2,141.2 C319.4,150.133333 327,162.333333 327,177.8 C327,190.066667 322.6,200.8 313.8,210 C305,219.2 292.933333,226.333333 277.6,231.4 C262.266667,236.466667 245.133333,239.266667 226.2,239.8 C217.666667,240.066667 211.8,242.6 208.6,247.4 C205.4,252.2 203.8,258.466667 203.8,266.2 C203.8,271.533333 204.866667,275.4 207,277.8 C209.133333,280.2 212.866667,281.533333 218.2,281.8 C241.666667,282.6 258.4,287 268.4,295 C278.4,303 283.4,312.866667 283.4,324.6 C283.4,341.4 274.666667,355.2 257.2,366 C239.733333,376.8 212.333333,382.2 175,382.2 C167,382.2 156.6,381.666667 143.8,380.6 C146.733333,348.333333 151.666667,314.4 158.6,278.8 C165.533333,243.2 172.466667,215 179.4,194.2 C181,189.4 181.8,185.133333 181.8,181.4 C181.8,172.333333 173.666667,167.8 157.4,167.8 C148.333333,167.8 141,169.133333 135.4,171.8 C129.8,174.466667 126.066667,179.133333 124.2,185.8 C113.533333,223.933333 104.733333,263.466667 97.8,304.4 C90.8666667,345.333333 86.2,384.466667 83.8,421.8 C83.2666667,430.066667 84.8,436.333333 88.4,440.6 C92,444.866667 98.6,447 108.2,447 Z M424.685034,214.2 C436.1517,214.2 445.3517,211.066667 452.285034,204.8 C459.218367,198.533333 462.685034,190.066667 462.685034,179.4 C462.685034,170.6 459.618367,163.8 453.485034,159 C447.3517,154.2 439.3517,151.8 429.485034,151.8 C418.5517,151.8 409.418367,154.933333 402.085034,161.2 C394.7517,167.466667 391.085034,175.266667 391.085034,184.6 C391.085034,193.933333 393.885034,201.2 399.485034,206.4 C405.085034,211.6 413.485034,214.2 424.685034,214.2 Z M421.485034,429 C444.418367,429 469.085034,412.866667 495.485034,380.6 C500.5517,374.733333 503.085034,366.466667 503.085034,355.8 C503.085034,350.2 502.085034,345.8 500.085034,342.6 C498.085034,339.4 495.3517,337.8 491.885034,337.8 C487.885034,337.8 484.285034,339.666667 481.085034,343.4 C469.085034,357.8 459.485034,368.333333 452.285034,375 C445.085034,381.666667 439.085034,385 434.285034,385 C429.218367,385 425.618367,382.866667 423.485034,378.6 C421.3517,374.333333 420.285034,368.2 420.285034,360.2 C420.285034,349.8 423.485034,329.933333 429.885034,300.6 C434.9517,276.333333 437.485034,260.866667 437.485034,254.2 C437.485034,245.133333 430.685034,240.6 417.085034,240.6 C408.285034,240.6 401.885034,242.2 397.885034,245.4 C393.885034,248.6 390.685034,254.466667 388.285034,263 C383.485034,279.266667 379.5517,296.8 376.485034,315.6 C373.418367,334.4 371.885034,349.8 371.885034,361.8 C371.885034,382.066667 375.818367,398.333333 383.685034,410.6 C391.5517,422.866667 404.1517,429 421.485034,429 Z M603.170067,429 C619.970067,429 634.970067,424.466667 648.170067,415.4 C661.370067,406.333333 673.703401,394.733333 685.170067,380.6 C690.236734,374.733333 692.770067,366.466667 692.770067,355.8 C692.770067,350.2 691.770067,345.8 689.770067,342.6 C687.770067,339.4 685.036734,337.8 681.570067,337.8 C677.570067,337.8 673.970067,339.666667 670.770067,343.4 C658.503401,358.066667 648.703401,368.666667 641.370067,375.2 C634.036734,381.733333 627.703401,385 622.370067,385 C614.636734,385 610.770067,379.666667 610.770067,369 C610.770067,361.533333 613.303401,346.2 618.370067,323 C624.236734,295.8 627.170067,277 627.170067,266.6 C627.170067,249.266667 618.503401,240.6 601.170067,240.6 C592.370067,240.6 582.703401,243.666667 572.170067,249.8 C561.636734,255.933333 550.903401,266.2 539.970067,280.6 C529.036734,295 519.170067,313.666667 510.370067,336.6 C511.436734,324.866667 512.770067,315 514.370067,307 C515.970067,299 518.103401,289.666667 520.770067,279 C524.770067,264.066667 526.770067,254.466667 526.770067,250.2 C526.770067,246.466667 525.703401,243.933333 523.570067,242.6 C521.436734,241.266667 517.703401,240.6 512.370067,240.6 C502.503401,240.6 494.836734,242.4 489.370067,246 C483.903401,249.6 479.970067,255.266667 477.570067,263 C467.703401,294.2 462.770067,327.133333 462.770067,361.8 C462.770067,385.266667 464.836734,402.333333 468.970067,413 C473.103401,423.666667 480.236734,429 490.370067,429 C498.636734,429 504.703401,426.8 508.570067,422.4 C512.436734,418 515.836734,409.533333 518.770067,397 C522.770067,380.733333 528.036734,365.266667 534.570067,350.6 C541.103401,335.933333 547.503401,324.133333 553.770067,315.2 C560.036734,306.266667 564.903401,301.8 568.370067,301.8 C571.303401,301.8 572.770067,303.933333 572.770067,308.2 C572.770067,314.6 571.036734,326.2 567.570067,343 C563.836734,362.2 561.970067,375.533333 561.970067,383 C561.970067,397.933333 565.436734,409.333333 572.370067,417.2 C579.303401,425.066667 589.570067,429 603.170067,429 Z M677.655101,609 C702.988434,609 723.855101,593.2 740.255101,561.6 C756.655101,530 769.921768,486.6 780.055101,431.4 L780.055101,431.4 L805.655101,414.2 C816.321768,406.733333 833.121768,395.266667 856.055101,379.8 C860.055101,377.133333 862.988434,374.066667 864.855101,370.6 C866.721768,367.133333 867.655101,362.333333 867.655101,356.2 C867.655101,351.133333 866.655101,346.933333 864.655101,343.6 C862.655101,340.266667 859.921768,338.6 856.455101,338.6 C853.788434,338.6 850.721768,339.666667 847.255101,341.8 C828.321768,354.066667 808.588434,368.2 788.055101,384.2 C789.388434,375.666667 790.655101,367.6 791.855101,360 C793.055101,352.4 794.188434,345.4 795.255101,339 C800.855101,305.4 804.188434,284.466667 805.255101,276.2 C805.521768,274.333333 805.655101,271.8 805.655101,268.6 C805.655101,262.733333 804.255101,258.8 801.455101,256.8 C798.655101,254.8 793.921768,253.8 787.255101,253.8 C780.588434,253.8 774.721768,254.333333 769.655101,255.4 C768.321768,249.533333 766.655101,245.466667 764.655101,243.2 C762.655101,240.933333 758.721768,239.8 752.855101,239.8 C734.455101,239.8 717.055101,245.6 700.655101,257.2 C684.255101,268.8 671.121768,284.133333 661.255101,303.2 C651.388434,322.266667 646.455101,342.466667 646.455101,363.8 C646.455101,383.266667 651.388434,399 661.255101,411 C671.121768,423 684.321768,429 700.855101,429 C708.055101,429 715.321768,427.066667 722.655101,423.2 C729.988434,419.333333 735.921768,413.8 740.455101,406.6 L740.455101,406.6 L738.055101,422.2 C696.988434,453.933333 668.988434,480.666667 654.055101,502.4 C639.121768,524.133333 631.655101,544.466667 631.655101,563.4 C631.655101,577 635.921768,588 644.455101,596.4 C652.988434,604.8 664.055101,609 677.655101,609 Z M715.255101,388.6 C709.388434,388.6 704.788434,386.6 701.455101,382.6 C698.121768,378.6 696.455101,372.466667 696.455101,364.2 C696.455101,349.266667 699.255101,335.133333 704.855101,321.8 C710.455101,308.466667 717.921768,297.733333 727.255101,289.6 C736.588434,281.466667 746.721768,277.266667 757.655101,277 L757.655101,277 L744.855101,345.4 C742.455101,359.266667 738.455101,369.933333 732.855101,377.4 C727.255101,384.866667 721.388434,388.6 715.255101,388.6 Z M682.055101,570.2 C678.055101,570.2 675.188434,568.733333 673.455101,565.8 C671.721768,562.866667 670.855101,559.133333 670.855101,554.6 C670.855101,543.933333 675.388434,531.533333 684.455101,517.4 C693.521768,503.266667 708.321768,487.4 728.855101,469.8 C721.121768,504.733333 713.055101,530.2 704.655101,546.2 C696.255101,562.2 688.721768,570.2 682.055101,570.2 Z M904.140135,429 C923.073468,429 940.006801,422.266667 954.940135,408.8 C969.873468,395.333333 979.873468,377.4 984.940135,355 C1004.14013,354.2 1021.74013,351 1037.74013,345.4 C1045.47347,343 1049.34013,335.4 1049.34013,322.6 C1049.34013,317.266667 1048.4068,312.866667 1046.54013,309.4 C1044.67347,305.933333 1042.0068,304.2 1038.54013,304.2 C1036.94013,304.2 1035.07347,304.466667 1032.94013,305 C1015.6068,309.533333 1000.67347,312.2 988.140135,313 C986.006801,292.466667 978.740135,275.2 966.340135,261.2 C953.940135,247.2 937.606801,240.2 917.340135,240.2 C900.806801,240.2 885.740135,244.666667 872.140135,253.6 C858.540135,262.533333 847.873468,274.933333 840.140135,290.8 C832.406801,306.666667 828.540135,324.733333 828.540135,345 C828.540135,359.933333 831.473468,373.8 837.340135,386.6 C843.206801,399.4 851.806801,409.666667 863.140135,417.4 C874.473468,425.133333 888.140135,429 904.140135,429 Z M907.340135,386.6 C899.606801,386.6 892.873468,382.733333 887.140135,375 C881.406801,367.266667 878.540135,356.066667 878.540135,341.4 C878.540135,322.733333 882.073468,308.266667 889.140135,298 C896.206801,287.733333 905.073468,282.6 915.740135,282.6 L915.740135,282.6 L917.740135,282.6 C916.940135,286.866667 916.540135,291.133333 916.540135,295.4 C916.540135,305.533333 918.740135,315.133333 923.140135,324.2 C927.540135,333.266667 933.873468,340.6 942.140135,346.2 C940.006801,359.266667 935.806801,369.266667 929.540135,376.2 C923.273468,383.133333 915.873468,386.6 907.340135,386.6 Z M1086.22517,429 C1104.09184,429 1120.42517,422.2 1135.22517,408.6 C1150.02517,395 1160.09184,377.133333 1165.42517,355 C1184.62517,354.2 1202.22517,351 1218.22517,345.4 C1222.22517,344.066667 1225.1585,341.6 1227.02517,338 C1228.89184,334.4 1229.82517,329.266667 1229.82517,322.6 C1229.82517,317.266667 1228.89184,312.866667 1227.02517,309.4 C1225.1585,305.933333 1222.49184,304.2 1219.02517,304.2 C1216.89184,304.2 1215.02517,304.466667 1213.42517,305 C1196.09184,309.533333 1181.1585,312.2 1168.62517,313 C1166.49184,293.266667 1159.82517,276.666667 1148.62517,263.2 C1137.42517,249.733333 1122.89184,242.333333 1105.02517,241 C1124.22517,217.266667 1137.9585,194.6 1146.22517,173 C1154.49184,151.4 1158.62517,129.666667 1158.62517,107.8 C1158.62517,91 1154.89184,77.3333333 1147.42517,66.8 C1139.9585,56.2666667 1130.09184,51 1117.82517,51 C1095.1585,51 1075.62517,65.2 1059.22517,93.6 C1042.82517,122 1030.3585,156.4 1021.82517,196.8 C1013.29184,237.2 1009.02517,274.6 1009.02517,309 C1009.02517,347.933333 1015.1585,377.666667 1027.42517,398.2 C1039.69184,418.733333 1059.29184,429 1086.22517,429 Z M1061.82517,268.2 C1064.49184,235.933333 1068.49184,206.2 1073.82517,179 C1079.1585,151.8 1084.9585,130.266667 1091.22517,114.4 C1097.49184,98.5333333 1103.29184,90.6 1108.62517,90.6 C1112.09184,90.6 1114.82517,92.8666667 1116.82517,97.4 C1118.82517,101.933333 1119.82517,108.466667 1119.82517,117 C1119.82517,136.2 1114.5585,158.133333 1104.02517,182.8 C1093.49184,207.466667 1079.42517,235.933333 1061.82517,268.2 Z M1087.82517,386.6 C1080.09184,386.6 1073.3585,382.6 1067.62517,374.6 C1061.89184,366.6 1059.02517,355 1059.02517,339.8 C1059.02517,321.666667 1062.69184,307.2 1070.02517,296.4 C1077.3585,285.6 1086.49184,280.2 1097.42517,280.2 L1097.42517,280.2 L1098.62517,280.2 C1097.5585,286.6 1097.02517,291.666667 1097.02517,295.4 C1097.02517,305.533333 1099.22517,315.133333 1103.62517,324.2 C1108.02517,333.266667 1114.3585,340.6 1122.62517,346.2 C1120.49184,359.266667 1116.22517,369.266667 1109.82517,376.2 C1103.42517,383.133333 1096.09184,386.6 1087.82517,386.6 Z M1256.3102,429 C1275.24354,429 1292.17687,422.266667 1307.1102,408.8 C1322.04354,395.333333 1332.04354,377.4 1337.1102,355 C1356.3102,354.2 1373.9102,351 1389.9102,345.4 C1397.64354,343 1401.5102,335.4 1401.5102,322.6 C1401.5102,317.266667 1400.57687,312.866667 1398.7102,309.4 C1396.84354,305.933333 1394.17687,304.2 1390.7102,304.2 C1389.1102,304.2 1387.24354,304.466667 1385.1102,305 C1367.77687,309.533333 1352.84354,312.2 1340.3102,313 C1338.17687,292.466667 1330.9102,275.2 1318.5102,261.2 C1306.1102,247.2 1289.77687,240.2 1269.5102,240.2 C1252.97687,240.2 1237.9102,244.666667 1224.3102,253.6 C1210.7102,262.533333 1200.04354,274.933333 1192.3102,290.8 C1184.57687,306.666667 1180.7102,324.733333 1180.7102,345 C1180.7102,359.933333 1183.64354,373.8 1189.5102,386.6 C1195.37687,399.4 1203.97687,409.666667 1215.3102,417.4 C1226.64354,425.133333 1240.3102,429 1256.3102,429 Z M1259.5102,386.6 C1251.77687,386.6 1245.04354,382.733333 1239.3102,375 C1233.57687,367.266667 1230.7102,356.066667 1230.7102,341.4 C1230.7102,322.733333 1234.24354,308.266667 1241.3102,298 C1248.37687,287.733333 1257.24354,282.6 1267.9102,282.6 L1267.9102,282.6 L1269.9102,282.6 C1269.1102,286.866667 1268.7102,291.133333 1268.7102,295.4 C1268.7102,305.533333 1270.9102,315.133333 1275.3102,324.2 C1279.7102,333.266667 1286.04354,340.6 1294.3102,346.2 C1292.17687,359.266667 1287.97687,369.266667 1281.7102,376.2 C1275.44354,383.133333 1268.04354,386.6 1259.5102,386.6 Z M1427.99524,429 C1446.92857,429 1463.8619,422.266667 1478.79524,408.8 C1493.72857,395.333333 1503.72857,377.4 1508.79524,355 C1527.99524,354.2 1545.59524,351 1561.59524,345.4 C1569.32857,343 1573.19524,335.4 1573.19524,322.6 C1573.19524,317.266667 1572.2619,312.866667 1570.39524,309.4 C1568.52857,305.933333 1565.8619,304.2 1562.39524,304.2 C1560.79524,304.2 1558.92857,304.466667 1556.79524,305 C1539.4619,309.533333 1524.52857,312.2 1511.99524,313 C1509.8619,292.466667 1502.59524,275.2 1490.19524,261.2 C1477.79524,247.2 1461.4619,240.2 1441.19524,240.2 C1424.6619,240.2 1409.59524,244.666667 1395.99524,253.6 C1382.39524,262.533333 1371.72857,274.933333 1363.99524,290.8 C1356.2619,306.666667 1352.39524,324.733333 1352.39524,345 C1352.39524,359.933333 1355.32857,373.8 1361.19524,386.6 C1367.0619,399.4 1375.6619,409.666667 1386.99524,417.4 C1398.32857,425.133333 1411.99524,429 1427.99524,429 Z M1431.19524,386.6 C1423.4619,386.6 1416.72857,382.733333 1410.99524,375 C1405.2619,367.266667 1402.39524,356.066667 1402.39524,341.4 C1402.39524,322.733333 1405.92857,308.266667 1412.99524,298 C1420.0619,287.733333 1428.92857,282.6 1439.59524,282.6 L1439.59524,282.6 L1441.59524,282.6 C1440.79524,286.866667 1440.39524,291.133333 1440.39524,295.4 C1440.39524,305.533333 1442.59524,315.133333 1446.99524,324.2 C1451.39524,333.266667 1457.72857,340.6 1465.99524,346.2 C1463.8619,359.266667 1459.6619,369.266667 1453.39524,376.2 C1447.12857,383.133333 1439.72857,386.6 1431.19524,386.6 Z M1637.68027,429 C1655.28027,429 1670.88027,424.466667 1684.48027,415.4 C1698.08027,406.333333 1710.6136,394.733333 1722.08027,380.6 C1727.14694,374.733333 1729.68027,366.466667 1729.68027,355.8 C1729.68027,350.2 1728.68027,345.8 1726.68027,342.6 C1724.68027,339.4 1721.94694,337.8 1718.48027,337.8 C1714.48027,337.8 1710.88027,339.666667 1707.68027,343.4 C1695.68027,357.266667 1685.28027,367.666667 1676.48027,374.6 C1667.68027,381.533333 1657.54694,385 1646.08027,385 C1631.94694,385 1621.6136,379.4 1615.08027,368.2 C1608.54694,357 1605.28027,337.533333 1605.28027,309.8 C1605.28027,302.333333 1605.54694,291.933333 1606.08027,278.6 L1606.08027,278.6 L1654.88027,278.6 C1685.0136,278.6 1700.08027,269.4 1700.08027,251 C1700.08027,245.933333 1699.14694,242.466667 1697.28027,240.6 C1695.4136,238.733333 1692.34694,237.8 1688.08027,237.8 L1688.08027,237.8 L1643.28027,237.8 C1677.94694,207.133333 1695.28027,171.133333 1695.28027,129.8 C1695.28027,114.866667 1692.08027,102.466667 1685.68027,92.6 C1679.28027,82.7333333 1670.48027,77.8 1659.28027,77.8 C1644.08027,77.8 1629.88027,85 1616.68027,99.4 C1603.48027,113.8 1592.2136,133.133333 1582.88027,157.4 C1573.54694,181.666667 1566.6136,208.466667 1562.08027,237.8 L1562.08027,237.8 L1539.28027,237.8 C1527.28027,237.8 1521.28027,245.266667 1521.28027,260.2 C1521.28027,266.6 1522.68027,271.266667 1525.48027,274.2 C1528.28027,277.133333 1533.68027,278.6 1541.68027,278.6 L1541.68027,278.6 L1557.28027,278.6 C1556.48027,290.6 1556.08027,302.466667 1556.08027,314.2 C1556.08027,390.733333 1583.28027,429 1637.68027,429 Z M1610.08027,231.8 C1613.0136,210.2 1616.68027,190.533333 1621.08027,172.8 C1625.48027,155.066667 1630.14694,141.2 1635.08027,131.2 C1640.0136,121.2 1644.48027,116.2 1648.48027,116.2 C1654.34694,116.2 1657.28027,124.066667 1657.28027,139.8 C1657.28027,153.666667 1653.34694,169.066667 1645.48027,186 C1637.6136,202.933333 1625.8136,218.2 1610.08027,231.8 Z M1816.5653,429 C1825.89864,429 1832.63197,426.8 1836.7653,422.4 C1840.89864,418 1842.9653,410.733333 1842.9653,400.6 C1842.9653,382.733333 1843.7653,366.533333 1845.3653,352 C1846.9653,337.466667 1849.09864,322.066667 1851.7653,305.8 C1854.69864,286.6 1856.1653,273.533333 1856.1653,266.6 C1856.1653,258.066667 1853.9653,251.6 1849.5653,247.2 C1845.1653,242.8 1838.69864,240.6 1830.1653,240.6 C1821.3653,240.6 1811.69864,243.666667 1801.1653,249.8 C1790.63197,255.933333 1779.9653,266.133333 1769.1653,280.4 C1758.3653,294.666667 1748.5653,313.133333 1739.7653,335.8 C1739.7653,321.133333 1740.1653,306.866667 1740.9653,293 C1776.43197,254.333333 1802.03197,220.533333 1817.7653,191.6 C1833.49864,162.666667 1841.3653,134.733333 1841.3653,107.8 C1841.3653,91 1837.5653,77.3333333 1829.9653,66.8 C1822.3653,56.2666667 1812.43197,51 1800.1653,51 C1777.23197,51 1757.5653,66.1333333 1741.1653,96.4 C1724.7653,126.666667 1712.3653,164.066667 1703.9653,208.6 C1695.5653,253.133333 1691.3653,295.933333 1691.3653,337 C1691.3653,361.266667 1692.03197,379.666667 1693.3653,392.2 C1694.69864,404.733333 1697.29864,414 1701.1653,420 C1705.03197,426 1711.09864,429 1719.3653,429 C1727.63197,429 1733.69864,426.8 1737.5653,422.4 C1741.43197,418 1744.83197,409.533333 1747.7653,397 C1751.7653,380.733333 1756.9653,365.266667 1763.3653,350.6 C1769.7653,335.933333 1776.1653,324.133333 1782.5653,315.2 C1788.9653,306.266667 1793.89864,301.8 1797.3653,301.8 C1800.29864,301.8 1801.7653,303.933333 1801.7653,308.2 C1801.7653,314.066667 1800.1653,327.666667 1796.9653,349 C1793.23197,373.533333 1791.3653,391.133333 1791.3653,401.8 C1791.3653,410.866667 1793.3653,417.666667 1797.3653,422.2 C1801.3653,426.733333 1807.7653,429 1816.5653,429 Z M1745.3653,243 C1748.83197,215.533333 1753.29864,190.133333 1758.7653,166.8 C1764.23197,143.466667 1769.89864,124.933333 1775.7653,111.2 C1781.63197,97.4666667 1786.9653,90.6 1791.7653,90.6 C1795.23197,90.6 1797.89864,92.8666667 1799.7653,97.4 C1801.63197,101.933333 1802.5653,108.466667 1802.5653,117 C1802.5653,135.666667 1797.1653,156.466667 1786.3653,179.4 C1775.5653,202.333333 1761.89864,223.533333 1745.3653,243 Z" id="path-2"></path>
    </defs>
    <g id="Artboard" stroke="none" stroke-width="1" fill="none" fill-rule="evenodd">
        <g id="Bingobooth" fill-rule="nonzero">
            <use fill="#09CAFE" xlink:href="#path-2"></use>
            <use fill="url(#linearGradient-1)" xlink:href="#path-2"></use>
        </g>
    </g>
</svg>