<?xml version="1.0" encoding="UTF-8"?>
<svg width="1506px" height="635px" viewBox="0 0 1506 635" version="1.1"
    xmlns="http://www.w3.org/2000/svg"
    xmlns:xlink="http://www.w3.org/1999/xlink">
    <defs>
        <linearGradient x1="2.70616862e-14%" y1="42.2726299%" x2="100%" y2="57.7273701%" id="linearGradient-1">
            <stop stop-color="#09CAFE" offset="0%"></stop>
            <stop stop-color="#FF5AEF" offset="100%"></stop>
        </linearGradient>
        <path d="M104.2,434 C113.8,434 121.666667,432.133333 127.8,428.4 C133.933333,424.666667 137.133333,419.066667 137.4,411.6 C145.4,412.4 156.066667,412.8 169.4,412.8 C205.133333,412.8 235.666667,408.6 261,400.2 C286.333333,391.8 305.6,379.866667 318.8,364.4 C332,348.933333 338.6,330.666667 338.6,309.6 C338.6,296.266667 334.333333,284.466667 325.8,274.2 C317.266667,263.933333 304.733333,256.533333 288.2,252 C318.866667,244.8 342.2,233 358.2,216.6 C374.2,200.2 382.2,180.666667 382.2,158 C382.2,131.333333 370.333333,109.866667 346.6,93.6 C322.866667,77.3333333 286.866667,69.2 238.6,69.2 C207.133333,69.2 176.333333,72.8 146.2,80 C116.066667,87.2 89.8,97.2 67.4,110 C56.7333333,116.133333 50,121.6 47.2,126.4 C44.4,131.2 43,136.933333 43,143.6 C43,148.666667 44.2666667,152.866667 46.8,156.2 C49.3333333,159.533333 53,161.2 57.8,161.2 C63.6666667,161.2 70.8666667,158.666667 79.4,153.6 C98.0666667,142.4 120.733333,133.133333 147.4,125.8 C174.066667,118.466667 201.666667,114.8 230.2,114.8 C261.666667,114.8 285,119.266667 300.2,128.2 C315.4,137.133333 323,149.333333 323,164.8 C323,177.066667 318.6,187.8 309.8,197 C301,206.2 288.933333,213.333333 273.6,218.4 C258.266667,223.466667 241.133333,226.266667 222.2,226.8 C213.666667,227.066667 207.8,229.6 204.6,234.4 C201.4,239.2 199.8,245.466667 199.8,253.2 C199.8,258.533333 200.866667,262.4 203,264.8 C205.133333,267.2 208.866667,268.533333 214.2,268.8 C237.666667,269.6 254.4,274 264.4,282 C274.4,290 279.4,299.866667 279.4,311.6 C279.4,328.4 270.666667,342.2 253.2,353 C235.733333,363.8 208.333333,369.2 171,369.2 C163,369.2 152.6,368.666667 139.8,367.6 C142.733333,335.333333 147.666667,301.4 154.6,265.8 C161.533333,230.2 168.466667,202 175.4,181.2 C177,176.4 177.8,172.133333 177.8,168.4 C177.8,159.333333 169.666667,154.8 153.4,154.8 C144.333333,154.8 137,156.133333 131.4,158.8 C125.8,161.466667 122.066667,166.133333 120.2,172.8 C109.533333,210.933333 100.733333,250.466667 93.8,291.4 C86.8666667,332.333333 82.2,371.466667 79.8,408.8 C79.2666667,417.066667 80.8,423.333333 84.4,427.6 C88,431.866667 94.6,434 104.2,434 Z M420.685034,201.2 C432.1517,201.2 441.3517,198.066667 448.285034,191.8 C455.218367,185.533333 458.685034,177.066667 458.685034,166.4 C458.685034,157.6 455.618367,150.8 449.485034,146 C443.3517,141.2 435.3517,138.8 425.485034,138.8 C414.5517,138.8 405.418367,141.933333 398.085034,148.2 C390.7517,154.466667 387.085034,162.266667 387.085034,171.6 C387.085034,180.933333 389.885034,188.2 395.485034,193.4 C401.085034,198.6 409.485034,201.2 420.685034,201.2 Z M417.485034,416 C440.418367,416 465.085034,399.866667 491.485034,367.6 C496.5517,361.733333 499.085034,353.466667 499.085034,342.8 C499.085034,337.2 498.085034,332.8 496.085034,329.6 C494.085034,326.4 491.3517,324.8 487.885034,324.8 C483.885034,324.8 480.285034,326.666667 477.085034,330.4 C465.085034,344.8 455.485034,355.333333 448.285034,362 C441.085034,368.666667 435.085034,372 430.285034,372 C425.218367,372 421.618367,369.866667 419.485034,365.6 C417.3517,361.333333 416.285034,355.2 416.285034,347.2 C416.285034,336.8 419.485034,316.933333 425.885034,287.6 C430.9517,263.333333 433.485034,247.866667 433.485034,241.2 C433.485034,232.133333 426.685034,227.6 413.085034,227.6 C404.285034,227.6 397.885034,229.2 393.885034,232.4 C389.885034,235.6 386.685034,241.466667 384.285034,250 C379.485034,266.266667 375.5517,283.8 372.485034,302.6 C369.418367,321.4 367.885034,336.8 367.885034,348.8 C367.885034,369.066667 371.818367,385.333333 379.685034,397.6 C387.5517,409.866667 400.1517,416 417.485034,416 Z M506.467772,322.538476 C507.517787,311.270401 508.818552,301.757576 510.370067,294 C511.970067,286 514.103401,276.666667 516.770067,266 C520.770067,251.066667 522.770067,241.466667 522.770067,237.2 C522.770067,233.466667 521.703401,230.933333 519.570067,229.6 C517.436734,228.266667 513.703401,227.6 508.370067,227.6 C498.503401,227.6 490.836734,229.4 485.370067,233 C479.903401,236.6 475.970067,242.266667 473.570067,250 C463.703401,281.2 458.770067,314.133333 458.770067,348.8 C458.770067,372.266667 460.836734,389.333333 464.970067,400 C469.103401,410.666667 476.236734,416 486.370067,416 C494.636734,416 500.703401,413.8 504.570067,409.4 C508.436734,405 511.836734,396.533333 514.770067,384 C518.770067,367.733333 524.036734,352.266667 530.570067,337.6 C537.103401,322.933333 543.503401,311.133333 549.770067,302.2 C556.036734,293.266667 560.903401,288.8 564.370067,288.8 C567.303401,288.8 568.770067,290.933333 568.770067,295.2 C568.770067,299.04 568.146067,304.752 566.898067,312.336 L566.701144,313.517538 C565.89376,318.302769 564.850067,323.796923 563.570067,330 C559.836734,349.2 557.970067,362.533333 557.970067,370 C557.970067,384.933333 561.436734,396.333333 568.370067,404.2 C575.303401,412.066667 585.570067,416 599.170067,416 C615.970067,416 630.970067,411.466667 644.170067,402.4 C657.370067,393.333333 669.703401,381.733333 681.170067,367.6 C686.236734,361.733333 688.770067,353.466667 688.770067,342.8 C688.770067,337.2 687.770067,332.8 685.770067,329.6 C683.770067,326.4 681.036734,324.8 677.570067,324.8 C673.570067,324.8 669.970067,326.666667 666.770067,330.4 C654.503401,345.066667 644.703401,355.666667 637.370067,362.2 C630.036734,368.733333 623.703401,372 618.370067,372 C610.636734,372 606.770067,366.666667 606.770067,356 C606.770067,348.533333 609.303401,333.2 614.370067,310 C620.236734,282.8 623.170067,264 623.170067,253.6 C623.170067,236.266667 614.503401,227.6 597.170067,227.6 C588.370067,227.6 578.703401,230.666667 568.170067,236.8 C557.636734,242.933333 546.903401,253.2 535.970067,267.6 C525.036734,282 515.170067,300.666667 506.370067,323.6 L506.37,323.599 L506.467772,322.538476 Z M673.655101,596 C698.988434,596 719.855101,580.2 736.255101,548.6 C752.655101,517 765.921768,473.6 776.055101,418.4 L776.055101,418.4 L801.655101,401.2 C812.321768,393.733333 829.121768,382.266667 852.055101,366.8 C856.055101,364.133333 858.988434,361.066667 860.855101,357.6 C862.721768,354.133333 863.655101,349.333333 863.655101,343.2 C863.655101,338.133333 862.655101,333.933333 860.655101,330.6 C858.655101,327.266667 855.921768,325.6 852.455101,325.6 C849.788434,325.6 846.721768,326.666667 843.255101,328.8 C824.321768,341.066667 804.588434,355.2 784.055101,371.2 C785.388434,362.666667 786.655101,354.6 787.855101,347 C789.055101,339.4 790.188434,332.4 791.255101,326 C796.855101,292.4 800.188434,271.466667 801.255101,263.2 C801.521768,261.333333 801.655101,258.8 801.655101,255.6 C801.655101,249.733333 800.255101,245.8 797.455101,243.8 C794.655101,241.8 789.921768,240.8 783.255101,240.8 C776.588434,240.8 770.721768,241.333333 765.655101,242.4 C764.321768,236.533333 762.655101,232.466667 760.655101,230.2 C758.655101,227.933333 754.721768,226.8 748.855101,226.8 C730.455101,226.8 713.055101,232.6 696.655101,244.2 C680.255101,255.8 667.121768,271.133333 657.255101,290.2 C647.388434,309.266667 642.455101,329.466667 642.455101,350.8 C642.455101,370.266667 647.388434,386 657.255101,398 C667.121768,410 680.321768,416 696.855101,416 C704.055101,416 711.321768,414.066667 718.655101,410.2 C725.988434,406.333333 731.921768,400.8 736.455101,393.6 L736.455101,393.6 L734.055101,409.2 C692.988434,440.933333 664.988434,467.666667 650.055101,489.4 C635.121768,511.133333 627.655101,531.466667 627.655101,550.4 C627.655101,564 631.921768,575 640.455101,583.4 C648.988434,591.8 660.055101,596 673.655101,596 Z M711.255101,375.6 C705.388434,375.6 700.788434,373.6 697.455101,369.6 C694.121768,365.6 692.455101,359.466667 692.455101,351.2 C692.455101,336.266667 695.255101,322.133333 700.855101,308.8 C706.455101,295.466667 713.921768,284.733333 723.255101,276.6 C732.588434,268.466667 742.721768,264.266667 753.655101,264 L753.655101,264 L740.855101,332.4 C738.455101,346.266667 734.455101,356.933333 728.855101,364.4 C723.255101,371.866667 717.388434,375.6 711.255101,375.6 Z M678.055101,557.2 C674.055101,557.2 671.188434,555.733333 669.455101,552.8 C667.721768,549.866667 666.855101,546.133333 666.855101,541.6 C666.855101,530.933333 671.388434,518.533333 680.455101,504.4 C689.521768,490.266667 704.321768,474.4 724.855101,456.8 C717.121768,491.733333 709.055101,517.2 700.655101,533.2 C692.255101,549.2 684.721768,557.2 678.055101,557.2 Z M900.140135,416 C919.073468,416 936.006801,409.266667 950.940135,395.8 C965.873468,382.333333 975.873468,364.4 980.940135,342 C1000.14013,341.2 1017.74013,338 1033.74013,332.4 C1041.47347,330 1045.34013,322.4 1045.34013,309.6 C1045.34013,304.266667 1044.4068,299.866667 1042.54013,296.4 C1040.67347,292.933333 1038.0068,291.2 1034.54013,291.2 C1032.94013,291.2 1031.07347,291.466667 1028.94013,292 C1011.6068,296.533333 996.673468,299.2 984.140135,300 C982.006801,279.466667 974.740135,262.2 962.340135,248.2 C949.940135,234.2 933.606801,227.2 913.340135,227.2 C896.806801,227.2 881.740135,231.666667 868.140135,240.6 C854.540135,249.533333 843.873468,261.933333 836.140135,277.8 C828.406801,293.666667 824.540135,311.733333 824.540135,332 C824.540135,346.933333 827.473468,360.8 833.340135,373.6 C839.206801,386.4 847.806801,396.666667 859.140135,404.4 C870.473468,412.133333 884.140135,416 900.140135,416 Z M903.340135,373.6 C895.606801,373.6 888.873468,369.733333 883.140135,362 C877.406801,354.266667 874.540135,343.066667 874.540135,328.4 C874.540135,309.733333 878.073468,295.266667 885.140135,285 C892.206801,274.733333 901.073468,269.6 911.740135,269.6 L911.740135,269.6 L913.740135,269.6 C912.940135,273.866667 912.540135,278.133333 912.540135,282.4 C912.540135,292.533333 914.740135,302.133333 919.140135,311.2 C923.540135,320.266667 929.873468,327.6 938.140135,333.2 C936.006801,346.266667 931.806801,356.266667 925.540135,363.2 C919.273468,370.133333 911.873468,373.6 903.340135,373.6 Z M1074.22517,416 C1091.29184,416 1106.5585,411.466667 1120.02517,402.4 C1133.49184,393.333333 1145.9585,381.733333 1157.42517,367.6 C1162.49184,361.733333 1165.02517,353.466667 1165.02517,342.8 C1165.02517,337.2 1164.02517,332.8 1162.02517,329.6 C1160.02517,326.4 1157.29184,324.8 1153.82517,324.8 C1149.82517,324.8 1146.22517,326.666667 1143.02517,330.4 C1130.22517,345.6 1119.69184,356.333333 1111.42517,362.6 C1103.1585,368.866667 1093.5585,372 1082.62517,372 C1075.69184,372 1070.09184,369.666667 1065.82517,365 C1061.5585,360.333333 1058.49184,352.533333 1056.62517,341.6 C1086.7585,300.533333 1110.62517,259.066667 1128.22517,217.2 C1145.82517,175.333333 1154.62517,138.533333 1154.62517,106.8 C1154.62517,84.6666667 1150.9585,67.6666667 1143.62517,55.8 C1136.29184,43.9333333 1126.22517,38 1113.42517,38 C1090.7585,38 1071.22517,52.9333333 1054.82517,82.8 C1038.42517,112.666667 1026.02517,148.4 1017.62517,190 C1009.22517,231.6 1005.02517,268.666667 1005.02517,301.2 C1005.02517,335.066667 1010.69184,362.666667 1022.02517,384 C1033.3585,405.333333 1050.7585,416 1074.22517,416 Z M1053.82517,287.6 C1054.3585,257.466667 1057.5585,226 1063.42517,193.2 C1069.29184,160.4 1076.09184,132.933333 1083.82517,110.8 C1091.5585,88.6666667 1098.49184,77.6 1104.62517,77.6 C1112.09184,77.6 1115.82517,87.7333333 1115.82517,108 C1115.82517,133.866667 1110.22517,162.466667 1099.02517,193.8 C1087.82517,225.133333 1072.7585,256.4 1053.82517,287.6 Z M1262.3102,416 C1273.77687,416 1285.64354,411.333333 1297.9102,402 C1310.17687,392.666667 1321.77687,381.2 1332.7102,367.6 C1337.77687,361.733333 1340.3102,353.466667 1340.3102,342.8 C1340.3102,337.2 1339.3102,332.8 1337.3102,329.6 C1335.3102,326.4 1332.57687,324.8 1329.1102,324.8 C1325.1102,324.8 1321.5102,326.666667 1318.3102,330.4 C1306.04354,345.066667 1296.3102,355.666667 1289.1102,362.2 C1281.9102,368.733333 1275.77687,372 1270.7102,372 C1267.5102,372 1264.9102,370.8 1262.9102,368.4 C1260.9102,366 1259.9102,362.8 1259.9102,358.8 C1259.9102,350.921212 1261.23218,339.019025 1263.87612,323.093439 L1264.12394,321.611958 C1265.46562,313.649777 1267.12771,304.712458 1269.1102,294.8 C1273.1102,273.733333 1275.1102,260.4 1275.1102,254.8 C1275.1102,245.466667 1268.57687,240.8 1255.5102,240.8 C1249.37687,240.8 1243.5102,241.333333 1237.9102,242.4 C1236.57687,236.533333 1234.9102,232.466667 1232.9102,230.2 C1230.9102,227.933333 1226.97687,226.8 1221.1102,226.8 C1202.7102,226.8 1185.3102,232.6 1168.9102,244.2 C1152.5102,255.8 1139.37687,271.133333 1129.5102,290.2 C1119.64354,309.266667 1114.7102,329.466667 1114.7102,350.8 C1114.7102,370.266667 1119.64354,386 1129.5102,398 C1139.37687,410 1152.57687,416 1169.1102,416 C1190.17687,416 1207.64354,404.8 1221.5102,382.4 C1225.24354,392.8 1230.77687,401 1238.1102,407 C1245.44354,413 1253.5102,416 1262.3102,416 Z M1183.5102,375.6 C1177.64354,375.6 1173.04354,373.6 1169.7102,369.6 C1166.37687,365.6 1164.7102,359.466667 1164.7102,351.2 C1164.7102,336.266667 1167.5102,322.133333 1173.1102,308.8 C1178.7102,295.466667 1186.24354,284.733333 1195.7102,276.6 C1205.17687,268.466667 1215.5102,264.266667 1226.7102,264 L1226.7102,264 L1211.9102,337.6 C1209.5102,349.066667 1205.64354,358.266667 1200.3102,365.2 C1194.97687,372.133333 1189.37687,375.6 1183.5102,375.6 Z M1378.39524,416 C1393.0619,416 1406.79524,411.533333 1419.59524,402.6 C1432.39524,393.666667 1442.72857,381.2 1450.59524,365.2 C1458.4619,349.2 1462.39524,331.2 1462.39524,311.2 C1462.39524,296.8 1459.79524,283.466667 1454.59524,271.2 C1449.39524,258.933333 1441.92857,248.933333 1432.19524,241.2 C1422.4619,233.466667 1411.0619,229.066667 1397.99524,228 C1417.19524,204.266667 1430.92857,181.6 1439.19524,160 C1447.4619,138.4 1451.59524,116.666667 1451.59524,94.8 C1451.59524,78 1447.8619,64.3333333 1440.39524,53.8 C1432.92857,43.2666667 1423.0619,38 1410.79524,38 C1388.12857,38 1368.59524,52.2 1352.19524,80.6 C1335.79524,109 1323.32857,143.4 1314.79524,183.8 C1306.2619,224.2 1301.99524,261.6 1301.99524,296 C1301.99524,334.933333 1308.0619,364.666667 1320.19524,385.2 C1332.32857,405.733333 1351.72857,416 1378.39524,416 Z M1354.79524,255.2 C1357.4619,222.933333 1361.4619,193.2 1366.79524,166 C1372.12857,138.8 1377.92857,117.266667 1384.19524,101.4 C1390.4619,85.5333333 1396.2619,77.6 1401.59524,77.6 C1405.0619,77.6 1407.79524,79.8666667 1409.79524,84.4 C1411.79524,88.9333333 1412.79524,95.4666667 1412.79524,104 C1412.79524,123.2 1407.52857,145.133333 1396.99524,169.8 C1386.4619,194.466667 1372.39524,222.933333 1354.79524,255.2 Z M1379.99524,372.8 C1371.99524,372.8 1365.32857,369.133333 1359.99524,361.8 C1354.6619,354.466667 1351.99524,342.8 1351.99524,326.8 C1351.99524,308.4 1355.19524,294.4 1361.59524,284.8 C1367.99524,275.2 1375.8619,270.4 1385.19524,270.4 C1392.6619,270.4 1399.0619,274.133333 1404.39524,281.6 C1409.72857,289.066667 1412.39524,300.133333 1412.39524,314.8 C1412.39524,333.733333 1409.2619,348.133333 1402.99524,358 C1396.72857,367.866667 1389.0619,372.8 1379.99524,372.8 Z" id="path-2"></path>
    </defs>
    <g id="Artboard" stroke="none" stroke-width="1" fill="none" fill-rule="evenodd">
        <g id="Bingolab" fill-rule="nonzero">
            <use fill="#09CAFE" xlink:href="#path-2"></use>
            <use fill="url(#linearGradient-1)" xlink:href="#path-2"></use>
        </g>
    </g>
</svg>