<?xml version="1.0" encoding="UTF-8"?>
<svg width="400px" height="400px" viewBox="0 0 400 400" version="1.1" xmlns="http://www.w3.org/2000/svg" xmlns:xlink="http://www.w3.org/1999/xlink">
    <title>Artboard</title>
    <g id="Artboard" stroke="none" stroke-width="1" fill="none" fill-rule="evenodd">
        <path d="M91.2,385 C100.8,385 108.666667,383.133333 114.8,379.4 C120.933333,375.666667 124.133333,370.066667 124.4,362.6 C132.4,363.4 143.066667,363.8 156.4,363.8 C192.133333,363.8 222.666667,359.6 248,351.2 C273.333333,342.8 292.6,330.866667 305.8,315.4 C319,299.933333 325.6,281.666667 325.6,260.6 C325.6,247.266667 321.333333,235.466667 312.8,225.2 C304.266667,214.933333 291.733333,207.533333 275.2,203 C305.866667,195.8 329.2,184 345.2,167.6 C361.2,151.2 369.2,131.666667 369.2,109 C369.2,82.3333333 357.333333,60.8666667 333.6,44.6 C309.866667,28.3333333 273.866667,20.2 225.6,20.2 C194.133333,20.2 163.333333,23.8 133.2,31 C103.066667,38.2 76.8,48.2 54.4,61 C43.7333333,67.1333333 37,72.6 34.2,77.4 C31.4,82.2 30,87.9333333 30,94.6 C30,99.6666667 31.2666667,103.866667 33.8,107.2 C36.3333333,110.533333 40,112.2 44.8,112.2 C50.6666667,112.2 57.8666667,109.666667 66.4,104.6 C85.0666667,93.4 107.733333,84.1333333 134.4,76.8 C161.066667,69.4666667 188.666667,65.8 217.2,65.8 C248.666667,65.8 272,70.2666667 287.2,79.2 C302.4,88.1333333 310,100.333333 310,115.8 C310,128.066667 305.6,138.8 296.8,148 C288,157.2 275.933333,164.333333 260.6,169.4 C245.266667,174.466667 228.133333,177.266667 209.2,177.8 C200.666667,178.066667 194.8,180.6 191.6,185.4 C188.4,190.2 186.8,196.466667 186.8,204.2 C186.8,209.533333 187.866667,213.4 190,215.8 C192.133333,218.2 195.866667,219.533333 201.2,219.8 C224.666667,220.6 241.4,225 251.4,233 C261.4,241 266.4,250.866667 266.4,262.6 C266.4,279.4 257.666667,293.2 240.2,304 C222.733333,314.8 195.333333,320.2 158,320.2 C150,320.2 139.6,319.666667 126.8,318.6 C129.733333,286.333333 134.666667,252.4 141.6,216.8 C148.533333,181.2 155.466667,153 162.4,132.2 C164,127.4 164.8,123.133333 164.8,119.4 C164.8,110.333333 156.666667,105.8 140.4,105.8 C131.333333,105.8 124,107.133333 118.4,109.8 C112.8,112.466667 109.066667,117.133333 107.2,123.8 C96.5333333,161.933333 87.7333333,201.466667 80.8,242.4 C73.8666667,283.333333 69.2,322.466667 66.8,359.8 C66.2666667,368.066667 67.8,374.333333 71.4,378.6 C75,382.866667 81.6,385 91.2,385 Z" id="B" fill="#09CAFE" fill-rule="nonzero"></path>
    </g>
</svg>